<svg xmlns="http://www.w3.org/2000/svg" xmlns:xlink="http://www.w3.org/1999/xlink" width="225" height="169" viewBox="0 0 225 169" fill="none">
<g  clip-path="url(#clip-path-0_8)">
<circle cx="7.5" cy="161.5" r="7.5"   fill="#BEBEBE" >
</circle>
<circle cx="67.5" cy="161.5" r="7.5"   fill="#BEBEBE" >
</circle>
<circle cx="127.5" cy="161.5" r="7.5"   fill="#BEBEBE" >
</circle>
<circle cx="187.5" cy="161.5" r="7.5"   fill="#BEBEBE" >
</circle>
<circle cx="247.5" cy="161.5" r="7.5"   fill="#BEBEBE" >
</circle>
<circle cx="307.5" cy="161.5" r="7.5"   fill="#BEBEBE" >
</circle>
<circle cx="37.5" cy="139.5" r="7.5"   fill="#BEBEBE" >
</circle>
<circle cx="97.5" cy="139.5" r="7.5"   fill="#BEBEBE" >
</circle>
<circle cx="157.5" cy="139.5" r="7.5"   fill="#BEBEBE" >
</circle>
<circle cx="217.5" cy="139.5" r="7.5"   fill="#BEBEBE" >
</circle>
<circle cx="277.5" cy="139.5" r="7.5"   fill="#BEBEBE" >
</circle>
<circle cx="337.5" cy="139.5" r="7.5"   fill="#BEBEBE" >
</circle>
<circle cx="67.5" cy="117.5" r="7.5"   fill="#BEBEBE" >
</circle>
<circle cx="127.5" cy="117.5" r="7.5"   fill="#BEBEBE" >
</circle>
<circle cx="187.5" cy="117.5" r="7.5"   fill="#BEBEBE" >
</circle>
<circle cx="247.5" cy="117.5" r="7.5"   fill="#BEBEBE" >
</circle>
<circle cx="307.5" cy="117.5" r="7.5"   fill="#BEBEBE" >
</circle>
<circle cx="367.5" cy="117.5" r="7.5"   fill="#BEBEBE" >
</circle>
<circle cx="97.5" cy="95.5" r="7.5"   fill="#BEBEBE" >
</circle>
<circle cx="157.5" cy="95.5" r="7.5"   fill="#BEBEBE" >
</circle>
<circle cx="217.5" cy="95.5" r="7.5"   fill="#BEBEBE" >
</circle>
<circle cx="277.5" cy="95.5" r="7.5"   fill="#BEBEBE" >
</circle>
<circle cx="337.5" cy="95.5" r="7.5"   fill="#BEBEBE" >
</circle>
<circle cx="397.5" cy="95.5" r="7.5"   fill="#BEBEBE" >
</circle>
<circle cx="127.5" cy="73.5" r="7.5"   fill="#BEBEBE" >
</circle>
<circle cx="187.5" cy="73.5" r="7.5"   fill="#BEBEBE" >
</circle>
<circle cx="247.5" cy="73.5" r="7.5"   fill="#BEBEBE" >
</circle>
<circle cx="307.5" cy="73.5" r="7.5"   fill="#BEBEBE" >
</circle>
<circle cx="367.5" cy="73.5" r="7.5"   fill="#BEBEBE" >
</circle>
<circle cx="427.5" cy="73.5" r="7.5"   fill="#BEBEBE" >
</circle>
<circle cx="157.5" cy="51.5" r="7.5"   fill="#BEBEBE" >
</circle>
<circle cx="217.5" cy="51.5" r="7.5"   fill="#BEBEBE" >
</circle>
<circle cx="277.5" cy="51.5" r="7.5"   fill="#BEBEBE" >
</circle>
<circle cx="337.5" cy="51.5" r="7.5"   fill="#BEBEBE" >
</circle>
<circle cx="397.5" cy="51.5" r="7.5"   fill="#BEBEBE" >
</circle>
<circle cx="457.5" cy="51.5" r="7.5"   fill="#BEBEBE" >
</circle>
<circle cx="187.5" cy="29.5" r="7.5"   fill="#BEBEBE" >
</circle>
<circle cx="247.5" cy="29.5" r="7.5"   fill="#BEBEBE" >
</circle>
<circle cx="307.5" cy="29.5" r="7.5"   fill="#BEBEBE" >
</circle>
<circle cx="367.5" cy="29.5" r="7.5"   fill="#BEBEBE" >
</circle>
<circle cx="427.5" cy="29.5" r="7.5"   fill="#BEBEBE" >
</circle>
<circle cx="487.5" cy="29.5" r="7.5"   fill="#BEBEBE" >
</circle>
<circle cx="217.5" cy="7.5" r="7.5"   fill="#BEBEBE" >
</circle>
<circle cx="277.5" cy="7.5" r="7.5"   fill="#BEBEBE" >
</circle>
<circle cx="337.5" cy="7.5" r="7.5"   fill="#BEBEBE" >
</circle>
<circle cx="397.5" cy="7.5" r="7.5"   fill="#BEBEBE" >
</circle>
<circle cx="457.5" cy="7.5" r="7.5"   fill="#BEBEBE" >
</circle>
<circle cx="517.5" cy="7.5" r="7.5"   fill="#BEBEBE" >
</circle>
</g>
<defs>
<clipPath id="clip-path-0_8">
<path d="M0 169L225 169L225 0L0 0L0 169Z" fill="white"/>
</clipPath>
</defs>
</svg>
