<svg xmlns="http://www.w3.org/2000/svg" xmlns:xlink="http://www.w3.org/1999/xlink" width="210" height="200" viewBox="0 0 210 200" fill="none">
<g  clip-path="url(#clip-path-0_1)">
<path   fill="rgba(255, 255, 255, 1)"  d="M118.13 118.45L96.0646 116.681Q93.5108 116.476 91.1132 115.583Q88.7588 114.705 86.7248 113.227Q84.6908 111.75 83.1289 109.782Q81.5382 107.778 80.5543 105.412L72.0534 84.9732C70.5538 81.3677 65.4462 81.3677 63.9466 84.9732L55.4457 105.412Q54.4618 107.778 52.8711 109.782Q51.3092 111.75 49.2752 113.227Q47.2412 114.705 44.8868 115.583Q42.4892 116.476 39.9354 116.681L17.87 118.45C13.9776 118.762 12.3993 123.619 15.3649 126.16L32.1764 140.561Q34.1221 142.227 35.5367 144.359Q36.9257 146.453 37.7026 148.844Q38.4795 151.235 38.5864 153.746Q38.6952 156.302 38.1008 158.794L32.9646 180.326C32.0586 184.124 36.1907 187.127 39.5231 185.091L58.4141 173.553Q60.6005 172.217 63.0654 171.531Q65.4858 170.857 68 170.857Q70.5142 170.857 72.9346 171.531Q75.3995 172.217 77.5859 173.553L96.4769 185.091C99.8093 187.127 103.941 184.124 103.035 180.326L97.8992 158.794Q97.3048 156.302 97.4136 153.746Q97.5205 151.235 98.2974 148.844Q99.0743 146.453 100.463 144.359Q101.878 142.227 103.824 140.561L120.635 126.16C123.601 123.619 122.022 118.762 118.13 118.45L118.13 118.45ZM119.249 104.495C135.554 105.802 142.166 126.15 129.743 136.792L112.931 151.193Q111.994 151.996 111.612 153.17Q111.231 154.345 111.517 155.546L116.653 177.078C120.449 192.989 103.139 205.565 89.1793 197.039L70.2883 185.5Q69.2347 184.857 68 184.857Q66.7653 184.857 65.7117 185.5L46.8207 197.039C32.8608 205.565 15.5512 192.989 19.3467 177.078L24.4828 155.546Q24.7693 154.345 24.3878 153.17Q24.0063 151.996 23.0686 151.193L6.2571 136.792C-6.16602 126.15 0.445663 105.802 16.7512 104.495L38.8166 102.726Q40.0473 102.627 41.0462 101.901Q42.045 101.176 42.5192 100.036L51.0201 79.5968C57.3021 64.4932 78.6979 64.4932 84.9799 79.5968L93.4808 100.036Q93.955 101.176 94.9538 101.901Q95.9527 102.627 97.1834 102.726L119.249 104.495L119.249 104.495Z">
</path>
<path    stroke="rgba(255, 255, 255, 1)" stroke-width="14"    d="M85 92L181.5 -4.49999">
</path>
<path    stroke="rgba(255, 255, 255, 1)" stroke-width="14"    d="M106 111L219 -2">
</path>
<path    stroke="rgba(255, 255, 255, 1)" stroke-width="14"    d="M106 151L227 30">
</path>
<path    stroke="rgba(255, 255, 255, 1)" stroke-width="14"    d="M109 187L225.5 70.5">
</path>
</g>
<defs>
<clipPath id="clip-path-0_1">
<path d="M0 200L210 200L210 0L0 0L0 200Z" fill="white"/>
</clipPath>
</defs>
</svg>
